<svg xmlns="http://www.w3.org/2000/svg" xmlns:xlink="http://www.w3.org/1999/xlink" width="60" height="60" viewBox="0 0 60 60">
    <defs>
        <path id="prefix__c" d="M3.336 8.528v1.616h-.873C1.05 11.194.245 12.295.045 13.448c-.3 1.729.906 5.943 3.004 5.943 2.099 0 8.006 1.014 9.356 0 1.35-1.014 3.287-3.71 4.046-4.494.76-.785 2.072-3.68 2.072-4.216 0-.537-1.478-.464-2.072-1.095-.594-.63-2.673-4.848-2.9-8.474-.15-2.417-1.58-.894-4.29 4.57l-5.256 1.93-.669.916z"/>
        <path id="prefix__e" d="M.004 4.464L.506 22.6c.002.081.008.162.02.243.409 2.993 2.798 4.49 7.167 4.49 6.65 0 10.863-5.152 9.137-15.362-.252-1.49-.137-3.622-.979-5.246C14.028 3.204 10.296.409 6.811.013 5.314-.157 3.045 1.327.004 4.464z"/>
        <rect id="prefix__a" width="60" height="60" x="0" y="0" rx="3"/>
    </defs>
    <g fill="none" fill-rule="evenodd">
        <mask id="prefix__b" fill="#fff">
            <use xlink:href="#prefix__a"/>
        </mask>
        <rect width="59.5" height="59.5" x=".25" y=".25" stroke="#CACACA" stroke-width=".5" rx="3"/>
        <g mask="url(#prefix__b)">
            <g transform="translate(7 6)">
                <g transform="translate(14.78 25.707)">
                    <mask id="prefix__d" fill="#fff">
                        <use xlink:href="#prefix__c"/>
                    </mask>
                    <use fill="#FFF" xlink:href="#prefix__c"/>
                    <path fill="#FFF" d="M11.355 5.034c-.872 3.504-2.572 5.702-5.1 6.595-2.528.893-4.537 1.025-6.026.394L2.7 8.184l5.42-2.928 3.235-.222z" mask="url(#prefix__d)"/>
                    <path fill="#1C1C39" d="M16.557 9.205c-1.525 4.306-3.435 6.96-5.729 7.96s-4.363 1.473-6.206 1.42l.513.533c3.604.41 6.027.232 7.27-.533 1.243-.766 3.582-3.654 7.018-8.664l-2.866-.716z" mask="url(#prefix__d)"/>
                </g>
                <g transform="translate(11.317 6.902)">
                    <mask id="prefix__f" fill="#fff">
                        <use xlink:href="#prefix__e"/>
                    </mask>
                    <use fill="#FFF" xlink:href="#prefix__e"/>
                    <path fill="#1C1C39" d="M.36 18.67c1.548-1.374 3.084-2.06 4.608-2.06 2.285 0 3.371 3.058 5.374 3.058 2.003 0 4.896-2.167 4.896-7.473 0-3.538.549-4.044 1.646-1.517l.534 2.642-.534 9.096-2.372 2.877-4.858 2.936c-2.902.795-5.236.59-7.002-.615-2.648-1.806-3.902-5.508-3.902-6.97 0-.973.536-1.632 1.61-1.974z" mask="url(#prefix__f)"/>
                </g>
                <path stroke="#1C1C39" stroke-linecap="round" stroke-width=".5" d="M12.309 16.086c.575-.386 1.086-.41 1.66-.041M19.072 15.87c.652-.234 1.153-.135 1.62.363"/>
                <path stroke="#FFF" stroke-linecap="round" stroke-width=".5" d="M17.242 27.422c-.68.408-1.266.406-1.9-.053"/>
                <circle cx="12.934" cy="19.097" r="1" fill="#1C1C39"/>
                <circle cx="19.109" cy="19.097" r="1" fill="#1C1C39"/>
                <path stroke="#1C1C39" stroke-linecap="round" stroke-width=".5" d="M15.542 16.272L13.79 22.39c-.015.053.015.109.069.124.008.002.018.004.027.004h3.011"/>
                <path fill="#C4B6F1" d="M17.784 35.811c-9.643.282-15.552 4.03-17.73 11.244-1.429 4.075 25.648-1.216 31.936-1.506 6.288-.291 15.335 1.87 16.575 1.14 1.24-.732-2.718-9.596-15.263-10.686-3.203 6.113-7.579 8.782-11.556 8.408-3.977-.373-6.44-2.3-6.177-5.093.175-1.862.913-3.03 2.215-3.507z"/>
                <path fill="#1C1C39" d="M27.794 19.395l-1.15-1.223c.148-4.334-.936-7.018-3.254-8.05-1.04 2.55-2.793 3.329-3.99 3.329-1.196 0-3.735-1.145-3.735-3.33-4.435 3.617-11.501 2.313-11.501-3.683S10.03 0 10.574 0c.543 0 2.66.046 5.71 2.577 2.74-4.477 8.071-1.904 7.757 1.414 3.375-2.65 7.949.593 6.006 4.448 2.141 3.546 2.635 6.857 1.48 9.933-.163.87-.76 1.353-1.793 1.45-1.032.096-1.679-.046-1.94-.427z"/>
                <path stroke="#FFF" stroke-linecap="round" stroke-width=".5" d="M30.424 8.675c-2.147-.034-3.86.223-5.14.772M21.799 11.066c-.201.515-.556.892-1.066 1.13"/>
                <path stroke="#1C1C39" stroke-linecap="round" stroke-width=".5" d="M24.034 4.055c.371-.828.756-1.389 1.155-1.683"/>
                <path stroke="#FFF" stroke-linecap="round" stroke-width=".5" d="M16.182 4.23c-.092-.901-.04-1.58.16-2.034"/>
                <path stroke="#1C1C39" stroke-linecap="round" stroke-width=".5" d="M6.064 12.538c2.515.13 4.353.015 5.515-.345s2.613-1.715 4.355-4.066"/>
                <path stroke="#FFF" stroke-linecap="round" stroke-width=".5" d="M6.022 4.139c.626-1.31 1.65-2.173 3.071-2.59"/>
                <circle cx="16.834" cy="29.722" r="1" fill="#FFF"/>
                <circle cx="15.784" cy="31.222" r="1" fill="#FFF"/>
                <circle cx="18.034" cy="31.222" r="1" fill="#FFF"/>
                <circle cx="30.434" cy="13.372" r="1" fill="#FFF"/>
                <circle cx="27.934" cy="14.472" r="1" fill="#FFF"/>
                <circle cx="30.084" cy="15.572" r="1" fill="#FFF"/>
                <circle cx="29.5" cy="21" r="3" fill="#1C1C39"/>
            </g>
        </g>
    </g>
</svg>
