<svg xmlns="http://www.w3.org/2000/svg" xmlns:xlink="http://www.w3.org/1999/xlink" width="60" height="60" viewBox="0 0 60 60">
    <defs>
        <ellipse id="prefix__c" cx="1.997" cy="2.842" rx="1.997" ry="2.842"/>
        <rect id="prefix__a" width="60" height="60" x="0" y="0" rx="3"/>
    </defs>
    <g fill="none" fill-rule="evenodd">
        <mask id="prefix__b" fill="#fff">
            <use xlink:href="#prefix__a"/>
        </mask>
        <rect width="59.5" height="59.5" x=".25" y=".25" stroke="#CACACA" stroke-width=".5" rx="3"/>
        <g mask="url(#prefix__b)">
            <g transform="translate(3 11)">
                <path fill="#1C1C39" d="M30.103 7.583v28.574c1.214.426 2.862.638 4.943.638 3.122 0 7.257 1.192 8.431 0 .23-.234-3.43-23.838-4.05-26.514-.62-2.676-1.942-4.678-3.821-6.378-1.88-1.7-4.418-1.753-5.49-1.753-.713 0-.924 1.06-.633 3.177l.62 2.256z"/>
                <path fill="#C4B6F1" d="M17.86 30.244h20.35c5 0 9.686 2.433 12.563 6.521l2.618 3.721c.683.972.45 2.313-.521 2.996-.454.32-1.014.451-1.562.367-8.487-1.296-15.138-1.944-19.955-1.944-8.592 0-12.264 1.373-18.137 1.906-2.799.255-5.848.327-9.149.218-1.187-.04-2.117-1.034-2.078-2.22.015-.442.165-.867.43-1.22l3.156-4.205c2.9-3.866 7.452-6.14 12.285-6.14z"/>
                <path fill="#FFF" d="M33.043 20.05c-.31 2.453-.31 4.326 0 5.62.31 1.295.935 2.82 1.875 4.574 1.367 1.241 1.023 2.746-1.031 4.512-3.082 2.65-8.196 4.243-11.279 4.497-2.054.17-2.926-.688-2.614-2.574l1.222-5.509 1.111-4.597 10.716-6.524z"/>
                <path fill="#1C1C39" d="M22.608 39.253c3.984-1.34 6.766-2.61 8.346-3.809 1.58-1.198 2.893-2.927 3.938-5.185h1.94c-.287 2.05-1.678 3.959-4.173 5.73-2.496 1.77-5.846 2.858-10.05 3.264zM22.19 26.39l-.966 4.773c2.445.574 4.69.122 6.733-1.355 2.043-1.477 3.2-3.761 3.468-6.852-1.545 1.62-2.96 2.64-4.247 3.06-1.286.421-2.949.546-4.988.374z"/>
                <path fill="#FFF" stroke="#1C1C39" stroke-linecap="round" stroke-width=".6" d="M15.277 17.074c.172 1.678 1.893 9.395 9.175 9.498 5.593.08 10.127-5.913 10.127-13.208C34.579 6.07 30.044.007 24.452.156c-3.832.103-6.86 1.787-8.547 5.577-.164.368-.297 1.045-.4 2.033-.124 1.067-.2 1.934-.228 2.6"/>
                <path fill="#1C1C39" d="M34.132 11.06h-20.78c-.34 0-.614-.276-.614-.615 0-.04.004-.08.012-.12C14.12 3.442 17.748 0 23.629 0c5.878 0 9.579 3.437 11.103 10.312.073.331-.136.66-.467.733-.044.01-.089.014-.133.014z"/>
                <g transform="translate(15.533 14.285)"/>
                <circle cx="18.988" cy="14.208" r="1" fill="#1C1C39"/>
                <circle cx="26.361" cy="14.208" r="1" fill="#1C1C39"/>
                <path stroke="#1C1C39" stroke-width=".6" d="M22.388 13.66L20.861 20.049 23.793 20.049"/>
                <ellipse cx="34.502" cy="15.206" fill="#FFF" rx="1.459" ry="2.458"/>
                <path stroke="#1C1C39" stroke-linecap="round" stroke-width=".6" d="M33.986 16.003c-.018-.428.064-.822.245-1.18.18-.36.4-.59.655-.692M22.327 21.828c.13.364.407.546.83.546.424 0 .701-.182.83-.546M18.334 12.083c.13-.364.406-.546.83-.546.424 0 .7.182.83.546M25.707 12.083c.129-.364.406-.546.83-.546.424 0 .7.182.83.546"/>
                <path stroke="#FFF" stroke-linecap="round" stroke-width=".6" d="M17.695 3.86c-.623.793-1.102 1.69-1.44 2.693-.337 1.002-.48 2.032-.427 3.088M20.306 2.938c-.622.793-1.102 1.69-1.44 2.693-.337 1.003-.48 2.032-.427 3.088M37.783 11.81L40.028 24.322M36.247 17.493L38.492 30.005"/>
            </g>
        </g>
    </g>
</svg>
