<?xml version="1.0" encoding="iso-8859-1"?>
<!-- Generator: Adobe Illustrator 16.0.0, SVG Export Plug-In . SVG Version: 6.00 Build 0)  -->
<!DOCTYPE svg PUBLIC "-//W3C//DTD SVG 1.1//EN" "http://www.w3.org/Graphics/SVG/1.1/DTD/svg11.dtd">
<svg version="1.1" id="Capa_1" xmlns="http://www.w3.org/2000/svg" xmlns:xlink="http://www.w3.org/1999/xlink" x="0px" y="0px"
	 width="869.96px" height="869.96px" viewBox="0 0 869.96 869.96" style="enable-background:new 0 0 869.96 869.96;"
	 xml:space="preserve">
<g>
	<path d="M266.34,606.867h423.978l-41.238,40.747c-20.625,20.38-20.824,53.62-0.445,74.245
		c10.27,10.395,23.805,15.602,37.348,15.601c13.328,0,26.666-5.046,36.896-15.155l131.48-129.912
		c9.904-9.787,15.516-23.107,15.6-37.03c0.082-13.924-5.367-27.31-15.154-37.215L723.121,384.876
		c-20.377-20.625-53.617-20.824-74.242-0.445s-20.826,53.62-0.445,74.245l42.676,43.191H266.34
		c-88.963,0-161.34-72.377-161.34-161.339v-4.32c0-43.096,16.782-83.612,47.256-114.084c20.503-20.502,20.503-53.744,0.001-74.246
		c-20.503-20.503-53.742-20.503-74.247-0.001C27.704,198.181,0,265.064,0,336.208v4.32c0,71.142,27.704,138.026,78.009,188.331
		C128.314,579.164,195.199,606.867,266.34,606.867z"/>
</g>
<g>
</g>
<g>
</g>
<g>
</g>
<g>
</g>
<g>
</g>
<g>
</g>
<g>
</g>
<g>
</g>
<g>
</g>
<g>
</g>
<g>
</g>
<g>
</g>
<g>
</g>
<g>
</g>
<g>
</g>
</svg>
