<svg width="24" height="24" viewBox="0 0 24 24" fill="none" xmlns="http://www.w3.org/2000/svg">
<path d="M16.8 7.79995H13.6944C13.4401 7.0823 12.7614 6.60266 12 6.60266C11.2386 6.60266 10.5599 7.0823 10.3056 7.79995H7.20001C6.86863 7.79995 6.60001 8.06858 6.60001 8.39995C6.60001 8.73132 6.86863 8.99995 7.20001 8.99995H10.3056C10.5599 9.7176 11.2386 10.1972 12 10.1972C12.7614 10.1972 13.4401 9.7176 13.6944 8.99995H16.8C17.1314 8.99995 17.4 8.73132 17.4 8.39995C17.4 8.06858 17.1314 7.79995 16.8 7.79995ZM12 8.99995C11.7573 8.99995 11.5385 8.85376 11.4457 8.62956C11.3528 8.40535 11.4041 8.14728 11.5757 7.97568C11.7473 7.80409 12.0054 7.75275 12.2296 7.84562C12.4538 7.93849 12.6 8.15727 12.6 8.39995C12.6 8.73132 12.3314 8.99995 12 8.99995Z" fill="#403D7D"/>
<path d="M16.8 15H13.6944C13.4401 14.2824 12.7614 13.8027 12 13.8027C11.2386 13.8027 10.5599 14.2824 10.3056 15H7.20001C6.86863 15 6.60001 15.2687 6.60001 15.6C6.60001 15.9314 6.86863 16.2 7.20001 16.2H10.3056C10.5599 16.9177 11.2386 17.3973 12 17.3973C12.7614 17.3973 13.4401 16.9177 13.6944 16.2H16.8C17.1314 16.2 17.4 15.9314 17.4 15.6C17.4 15.2687 17.1314 15 16.8 15ZM12 16.2C11.7573 16.2 11.5385 16.0538 11.4457 15.8296C11.3528 15.6054 11.4041 15.3474 11.5757 15.1758C11.7473 15.0042 12.0054 14.9528 12.2296 15.0457C12.4538 15.1386 12.6 15.3573 12.6 15.6C12.6 15.9314 12.3314 16.2 12 16.2Z" fill="#403D7D"/>
<path d="M15.6 10.2C14.8384 10.2018 14.1601 10.6821 13.9056 11.4H7.20001C6.86863 11.4 6.60001 11.6686 6.60001 12C6.60001 12.3313 6.86863 12.6 7.20001 12.6H13.9056C14.2108 13.4633 15.1156 13.9599 16.0078 13.7538C16.9001 13.5476 17.4953 12.7045 17.3909 11.7947C17.2865 10.885 16.5157 10.1986 15.6 10.2ZM15.6 12.6C15.3573 12.6 15.1385 12.4538 15.0457 12.2296C14.9528 12.0054 15.0041 11.7473 15.1757 11.5757C15.3473 11.4041 15.6054 11.3528 15.8296 11.4456C16.0538 11.5385 16.2 11.7573 16.2 12C16.2 12.3313 15.9314 12.6 15.6 12.6Z" fill="#403D7D"/>
</svg>
