<?xml version="1.0" encoding="utf-8"?>
<!-- Svg Vector Icons : http://www.onlinewebfonts.com/icon -->
<!DOCTYPE svg PUBLIC "-//W3C//DTD SVG 1.1//EN" "http://www.w3.org/Graphics/SVG/1.1/DTD/svg11.dtd">
<svg version="1.1" xmlns="http://www.w3.org/2000/svg" xmlns:xlink="http://www.w3.org/1999/xlink" x="0px" y="0px" viewBox="0 0 1000 1000" enable-background="new 0 0 1000 1000" xml:space="preserve">
<metadata> Svg Vector Icons : http://www.onlinewebfonts.com/icon </metadata>
<g>
<path fill-rule="evenodd" clip-rule="evenodd" fill="#403D7D" d="M704.9,143.6L678.2,10H321.8l-26.7,133.6h-196V990h801.8V143.6H704.9z M357.5,54.5h285.1l26.7,133.6H330.7L357.5,54.5z M856.4,945.5H143.7V188.2h142.5l-8.9,44.5h445.5l-8.9-44.5h142.5V945.5z"/>
<path fill-rule="evenodd" clip-rule="evenodd" fill="#403D7D"  d="M232.7,542.3h178.2V364.1H232.7V542.3z M277.3,408.7h89.1v89.1h-89.1V408.7z"/>
<path fill-rule="evenodd" clip-rule="evenodd" fill="#403D7D"  d="M515.3,416.3l-31.5,31.5l63,63l31.5,31.5l31.5-31.5l157.5-157.5l-31.5-31.5L578.3,479.3L515.3,416.3z"/>
<path fill-rule="evenodd" clip-rule="evenodd" fill="#403D7D"  d="M500,701.8h267.3v44.5H500V701.8z"/>
<path fill-rule="evenodd" clip-rule="evenodd" fill="#403D7D"  d="M232.7,811.8h178.2V633.6H232.7V811.8z M277.3,678.2h89.1v89.1h-89.1V678.2z"/>
</g>
</svg>