<svg width="14" height="14" viewBox="0 0 14 14" fill="none" xmlns="http://www.w3.org/2000/svg">
<path d="M4.80634 4.13977L6.33301 2.60643V8.99977C6.33301 9.17658 6.40325 9.34615 6.52827 9.47117C6.65329 9.5962 6.82286 9.66644 6.99967 9.66644C7.17649 9.66644 7.34606 9.5962 7.47108 9.47117C7.5961 9.34615 7.66634 9.17658 7.66634 8.99977V2.60643L9.19301 4.13977C9.25498 4.20225 9.32872 4.25185 9.40996 4.2857C9.4912 4.31954 9.57833 4.33697 9.66634 4.33697C9.75435 4.33697 9.84149 4.31954 9.92273 4.2857C10.004 4.25185 10.0777 4.20225 10.1397 4.13977C10.2022 4.07779 10.2518 4.00406 10.2856 3.92282C10.3194 3.84158 10.3369 3.75444 10.3369 3.66644C10.3369 3.57843 10.3194 3.49129 10.2856 3.41005C10.2518 3.32881 10.2022 3.25508 10.1397 3.1931L7.47301 0.526435C7.40961 0.465741 7.33484 0.418164 7.25301 0.386435C7.0907 0.319756 6.90865 0.319756 6.74634 0.386435C6.66451 0.418164 6.58974 0.465741 6.52634 0.526435L3.85967 3.1931C3.79752 3.25526 3.74821 3.32905 3.71457 3.41027C3.68093 3.49148 3.66361 3.57853 3.66361 3.66644C3.66361 3.75434 3.68093 3.84139 3.71457 3.9226C3.74821 4.00382 3.79752 4.07761 3.85967 4.13977C3.92183 4.20193 3.99563 4.25123 4.07684 4.28487C4.15806 4.31851 4.2451 4.33583 4.33301 4.33583C4.42091 4.33583 4.50796 4.31851 4.58917 4.28487C4.67039 4.25123 4.74418 4.20193 4.80634 4.13977ZM12.9997 8.3331C12.8229 8.3331 12.6533 8.40334 12.5283 8.52836C12.4032 8.65339 12.333 8.82296 12.333 8.99977V11.6664C12.333 11.8432 12.2628 12.0128 12.1377 12.1378C12.0127 12.2629 11.8432 12.3331 11.6663 12.3331H2.33301C2.1562 12.3331 1.98663 12.2629 1.8616 12.1378C1.73658 12.0128 1.66634 11.8432 1.66634 11.6664V8.99977C1.66634 8.82296 1.5961 8.65339 1.47108 8.52836C1.34605 8.40334 1.17649 8.3331 0.999674 8.3331C0.822863 8.3331 0.653294 8.40334 0.52827 8.52836C0.403246 8.65339 0.333008 8.82296 0.333008 8.99977V11.6664C0.333008 12.1969 0.543722 12.7056 0.918794 13.0806C1.29387 13.4557 1.80257 13.6664 2.33301 13.6664H11.6663C12.1968 13.6664 12.7055 13.4557 13.0806 13.0806C13.4556 12.7056 13.6663 12.1969 13.6663 11.6664V8.99977C13.6663 8.82296 13.5961 8.65339 13.4711 8.52836C13.3461 8.40334 13.1765 8.3331 12.9997 8.3331Z" fill="#2F1C04"/>
</svg>
