<svg width="23" height="18" viewBox="0 0 23 18" fill="none" xmlns="http://www.w3.org/2000/svg">
<path d="M21.78 7.37002C21.6859 7.254 21.567 7.16054 21.432 7.09652C21.297 7.03249 21.1494 6.99951 21 7.00002H19V6.00002C19 5.20437 18.6839 4.44131 18.1213 3.8787C17.5587 3.31609 16.7956 3.00002 16 3.00002H9.72L9.4 2.00002C9.19255 1.41325 8.80775 0.905526 8.2989 0.547183C7.79005 0.188841 7.18236 -0.0023769 6.56 2.23036e-05H3C2.20435 2.23036e-05 1.44129 0.316093 0.87868 0.878702C0.31607 1.44131 0 2.20437 0 3.00002V15C0 15.7957 0.31607 16.5587 0.87868 17.1213C1.44129 17.684 2.20435 18 3 18H17.4C18.0812 17.998 18.7415 17.7643 19.2722 17.3372C19.8029 16.9101 20.1724 16.3151 20.32 15.65L22 8.22002C22.0304 8.07094 22.0264 7.91688 21.9883 7.76959C21.9502 7.62229 21.8789 7.48563 21.78 7.37002ZM4.37 15.22C4.3192 15.4456 4.19179 15.6466 4.00946 15.7888C3.82714 15.931 3.60116 16.0057 3.37 16H3C2.73478 16 2.48043 15.8947 2.29289 15.7071C2.10536 15.5196 2 15.2652 2 15V3.00002C2 2.73481 2.10536 2.48045 2.29289 2.29292C2.48043 2.10538 2.73478 2.00002 3 2.00002H6.56C6.77807 1.98864 6.99386 2.04895 7.17443 2.17174C7.355 2.29452 7.49042 2.47304 7.56 2.68002L8.1 4.32002C8.16417 4.51077 8.2844 4.67771 8.44497 4.79903C8.60554 4.92035 8.79898 4.9904 9 5.00002H16C16.2652 5.00002 16.5196 5.10538 16.7071 5.29292C16.8946 5.48045 17 5.73481 17 6.00002V7.00002H7C6.76884 6.99437 6.54286 7.06901 6.36054 7.21122C6.17821 7.35344 6.0508 7.55444 6 7.78002L4.37 15.22ZM18.37 15.22C18.3192 15.4456 18.1918 15.6466 18.0095 15.7888C17.8271 15.931 17.6012 16.0057 17.37 16H6.21C6.26165 15.8886 6.29862 15.771 6.32 15.65L7.8 9.00002H19.8L18.37 15.22Z" fill="#9292A8"/>
</svg>
