<svg width="22" height="21" viewBox="0 0 22 21" fill="none" xmlns="http://www.w3.org/2000/svg">
<path d="M15.8405 10.6299C16.241 10.6349 16.6385 10.5596 17.0095 10.4084C17.3805 10.2573 17.7174 10.0334 18.0005 9.74991L20.8305 6.91991C21.0167 6.73255 21.1213 6.4791 21.1213 6.21491C21.1213 5.95073 21.0167 5.69728 20.8305 5.50991C20.7375 5.41618 20.6269 5.34179 20.5051 5.29102C20.3832 5.24025 20.2525 5.21411 20.1205 5.21411C19.9885 5.21411 19.8578 5.24025 19.7359 5.29102C19.614 5.34179 19.5034 5.41618 19.4105 5.50991L16.5505 8.32991C16.4575 8.42364 16.3469 8.49803 16.2251 8.5488C16.1032 8.59957 15.9725 8.62571 15.8405 8.62571C15.7085 8.62571 15.5778 8.59957 15.4559 8.5488C15.334 8.49803 15.2234 8.42364 15.1305 8.32991L18.6705 4.79991C18.7637 4.70667 18.8377 4.59598 18.8881 4.47416C18.9386 4.35234 18.9646 4.22177 18.9646 4.08991C18.9646 3.95805 18.9386 3.82749 18.8881 3.70566C18.8377 3.58384 18.7637 3.47315 18.6705 3.37991C18.5772 3.28667 18.4665 3.21271 18.3447 3.16225C18.2229 3.11179 18.0923 3.08582 17.9605 3.08582C17.8286 3.08582 17.698 3.11179 17.5762 3.16225C17.4544 3.21271 17.3437 3.28667 17.2505 3.37991L13.7205 6.91991C13.5342 6.73255 13.4297 6.4791 13.4297 6.21491C13.4297 5.95073 13.5342 5.69728 13.7205 5.50991L16.5505 2.67991C16.6437 2.58667 16.7177 2.47598 16.7681 2.35416C16.8186 2.23234 16.8446 2.10177 16.8446 1.96991C16.8446 1.83805 16.8186 1.70748 16.7681 1.58566C16.7177 1.46384 16.6437 1.35315 16.5505 1.25991C16.4572 1.16667 16.3465 1.09271 16.2247 1.04225C16.1029 0.991792 15.9723 0.96582 15.8405 0.96582C15.7086 0.96582 15.578 0.991792 15.4562 1.04225C15.3344 1.09271 15.2237 1.16667 15.1305 1.25991L12.3005 4.08991C11.7387 4.65241 11.4231 5.41491 11.4231 6.20991C11.4231 7.00491 11.7387 7.76741 12.3005 8.32991L11.0005 9.61991L2.73048 1.31991L2.63048 1.25991C2.57936 1.21531 2.52211 1.17827 2.46048 1.14991L2.28048 1.07991L2.16048 0.999912H2.09048H1.89048C1.83085 0.990379 1.7701 0.990379 1.71048 0.999912C1.64994 1.02195 1.59273 1.05223 1.54048 1.08991L1.38048 1.18991H1.31048L1.25048 1.28991C1.20815 1.34271 1.1713 1.39967 1.14048 1.45991C1.11119 1.52089 1.08775 1.58451 1.07048 1.64991C1.07048 1.64991 1.07048 1.71991 1.07048 1.75991C0.827811 3.45132 0.982526 5.17601 1.52235 6.79723C2.06218 8.41844 2.97227 9.89161 4.18048 11.0999L6.82048 13.7299L1.41048 19.1299C1.31675 19.2229 1.24235 19.3335 1.19158 19.4553C1.14082 19.5772 1.11468 19.7079 1.11468 19.8399C1.11468 19.9719 1.14082 20.1026 1.19158 20.2245C1.24235 20.3463 1.31675 20.4569 1.41048 20.5499C1.50392 20.6426 1.61473 20.7159 1.73657 20.7657C1.85841 20.8154 1.98887 20.8407 2.12048 20.8399C2.25208 20.8407 2.38254 20.8154 2.50438 20.7657C2.62622 20.7159 2.73704 20.6426 2.83048 20.5499L8.90048 14.5699L11.7305 11.7399L13.7305 9.73991C14.2885 10.3039 15.0471 10.6239 15.8405 10.6299ZM8.19048 12.4499L5.56048 9.80991C4.11893 8.34865 3.21632 6.44118 3.00048 4.39991L9.61048 10.9999L8.19048 12.4499ZM14.4305 13.0199C14.2422 12.8303 13.9863 12.7232 13.719 12.7223C13.4518 12.7213 13.1951 12.8266 13.0055 13.0149C12.8158 13.2032 12.7088 13.4591 12.7078 13.7264C12.7069 13.9936 12.8122 14.2503 13.0005 14.4399L19.3005 20.7399C19.4915 20.9137 19.7423 21.0069 20.0005 20.9999C20.1321 21.0007 20.2625 20.9754 20.3844 20.9257C20.5062 20.8759 20.617 20.8026 20.7105 20.7099C20.8042 20.6169 20.8786 20.5063 20.9294 20.3845C20.9801 20.2626 21.0063 20.1319 21.0063 19.9999C21.0063 19.8679 20.9801 19.7372 20.9294 19.6153C20.8786 19.4935 20.8042 19.3829 20.7105 19.2899L14.4305 13.0199Z" fill="#7A7A7A"/>
</svg>
