<svg width="30" height="30" viewBox="0 0 30 30" fill="none" xmlns="http://www.w3.org/2000/svg">
<rect x="3.75" y="13.75" width="22.5" height="15" fill="white" stroke="#403D7D" stroke-width="2"/>
<path d="M3.75 2.5C3.75 1.80964 4.30964 1.25 5 1.25H7.5C8.19036 1.25 8.75 1.80964 8.75 2.5V12.5H3.75V2.5Z" fill="white" stroke="#403D7D" stroke-width="2"/>
<path d="M11.25 20C11.25 18.6193 12.3693 17.5 13.75 17.5H16.25C17.6307 17.5 18.75 18.6193 18.75 20V28.75H11.25V20Z" stroke="#403D7D" stroke-width="2"/>
<path fill-rule="evenodd" clip-rule="evenodd" d="M1.25 15L15 2.5L28.75 15" fill="white"/>
<path d="M1.25 15L15 2.5L28.75 15" stroke="#403D7D" stroke-width="2" stroke-linecap="round"/>
<path d="M26.2497 13.7493L26.2497 16.2391" stroke="#403D7D" stroke-width="2" stroke-linecap="square"/>
<path d="M3.74966 13.7493L3.74966 16.2391" stroke="#403D7D" stroke-width="2" stroke-linecap="square"/>
<circle cx="14.75" cy="9.75" r="1.5" fill="#403D7D"/>
<path d="M5 5H7.5" stroke="#403D7D" stroke-width="2" stroke-linecap="square"/>
<path d="M1.25 28.75H28.75" stroke="#403D7D" stroke-width="2" stroke-linecap="round"/>
</svg>
