<svg width="14" height="14" viewBox="0 0 14 14" fill="none" xmlns="http://www.w3.org/2000/svg">
<path d="M12.9997 8.3335C12.8229 8.3335 12.6533 8.40373 12.5283 8.52876C12.4032 8.65378 12.333 8.82335 12.333 9.00016V11.6668C12.333 11.8436 12.2628 12.0132 12.1377 12.1382C12.0127 12.2633 11.8432 12.3335 11.6663 12.3335H2.33301C2.1562 12.3335 1.98663 12.2633 1.8616 12.1382C1.73658 12.0132 1.66634 11.8436 1.66634 11.6668V9.00016C1.66634 8.82335 1.5961 8.65378 1.47108 8.52876C1.34605 8.40373 1.17649 8.3335 0.999674 8.3335C0.822863 8.3335 0.653294 8.40373 0.52827 8.52876C0.403246 8.65378 0.333008 8.82335 0.333008 9.00016V11.6668C0.333008 12.1973 0.543722 12.706 0.918794 13.081C1.29387 13.4561 1.80257 13.6668 2.33301 13.6668H11.6663C12.1968 13.6668 12.7055 13.4561 13.0806 13.081C13.4556 12.706 13.6663 12.1973 13.6663 11.6668V9.00016C13.6663 8.82335 13.5961 8.65378 13.4711 8.52876C13.3461 8.40373 13.1765 8.3335 12.9997 8.3335ZM6.52634 9.4735C6.58974 9.53419 6.66451 9.58177 6.74634 9.6135C6.82614 9.64877 6.91243 9.66698 6.99967 9.66698C7.08692 9.66698 7.17321 9.64877 7.25301 9.6135C7.33484 9.58177 7.40961 9.53419 7.47301 9.4735L10.1397 6.80683C10.2652 6.68129 10.3357 6.51103 10.3357 6.3335C10.3357 6.15596 10.2652 5.9857 10.1397 5.86016C10.0141 5.73463 9.84388 5.6641 9.66634 5.6641C9.48881 5.6641 9.31854 5.73463 9.19301 5.86016L7.66634 7.3935V1.00016C7.66634 0.823352 7.5961 0.653782 7.47108 0.528758C7.34606 0.403734 7.17649 0.333496 6.99967 0.333496C6.82286 0.333496 6.65329 0.403734 6.52827 0.528758C6.40325 0.653782 6.33301 0.823352 6.33301 1.00016V7.3935L4.80634 5.86016C4.74418 5.798 4.67039 5.7487 4.58917 5.71506C4.50796 5.68142 4.42091 5.6641 4.33301 5.6641C4.2451 5.6641 4.15806 5.68142 4.07684 5.71506C3.99563 5.7487 3.92183 5.798 3.85967 5.86016C3.79752 5.92232 3.74821 5.99612 3.71457 6.07733C3.68093 6.15854 3.66361 6.24559 3.66361 6.3335C3.66361 6.4214 3.68093 6.50845 3.71457 6.58966C3.74821 6.67088 3.79752 6.74467 3.85967 6.80683L6.52634 9.4735Z" fill="#403D7D"/>
</svg>
