<?xml version="1.0" encoding="iso-8859-1"?>
<!-- Generator: Adobe Illustrator 19.0.0, SVG Export Plug-In . SVG Version: 6.00 Build 0)  -->
<svg version="1.1" id="Layer_1" xmlns="http://www.w3.org/2000/svg" xmlns:xlink="http://www.w3.org/1999/xlink" x="0px" y="0px"
	 viewBox="0 0 512 512" style="enable-background:new 0 0 512 512;" xml:space="preserve">
<g>
	<g>
		<path fill-rule="evenodd" clip-rule="evenodd" d="M488.727,279.273H372.364c-42.094,0-77.734-21.068-89.203-49.88c12.761-3.393,23.72-9.362,32.729-17.897
			c16.882-15.996,25.443-39.651,25.443-70.308c0-58.885-61.325-126.299-68.318-133.793C268.614,2.678,262.451,0,256,0
			c-6.451,0-12.614,2.678-17.015,7.395c-6.993,7.494-68.318,74.909-68.318,133.793c0,30.658,8.561,54.312,25.443,70.307
			c9.01,8.535,19.968,14.505,32.729,17.897c-11.469,28.813-47.109,49.881-89.203,49.881H23.273C10.42,279.273,0,289.693,0,302.545
			c0,56.945,27.31,110.153,76.898,149.824C124.965,490.823,188.571,512,256,512s131.035-21.177,179.101-59.631
			C484.69,412.698,512,359.491,512,302.545C512,289.693,501.58,279.273,488.727,279.273z M217.212,141.188
			c0-23.302,19.811-56.781,38.788-81.678c18.98,24.902,38.788,58.377,38.788,81.678c0,39.542-18.643,44.994-38.788,44.994
			C235.855,186.182,217.212,180.73,217.212,141.188z M256,465.455c-105.337,0-192.76-60.793-207.324-139.636h90.961
			c36.346,0,70.73-11.494,96.819-32.365c7.432-5.945,13.964-12.451,19.544-19.413c5.581,6.96,12.113,13.467,19.544,19.413
			c26.089,20.871,60.473,32.365,96.819,32.365h90.961C448.76,404.661,361.337,465.455,256,465.455z" fill="white"/>
	</g>
</g>
<g>
</g>
<g>
</g>
<g>
</g>
<g>
</g>
<g>
</g>
<g>
</g>
<g>
</g>
<g>
</g>
<g>
</g>
<g>
</g>
<g>
</g>
<g>
</g>
<g>
</g>
<g>
</g>
<g>
</g>
</svg>
