<svg width="18" height="20" viewBox="0 0 18 20" fill="none" xmlns="http://www.w3.org/2000/svg">
<path d="M15 16C14.7348 16 14.4804 16.1054 14.2929 16.2929C14.1054 16.4804 14 16.7348 14 17C14 17.2652 13.8946 17.5196 13.7071 17.7071C13.5196 17.8946 13.2652 18 13 18H3C2.73478 18 2.48043 17.8946 2.29289 17.7071C2.10536 17.5196 2 17.2652 2 17V3C2 2.73478 2.10536 2.48043 2.29289 2.29289C2.48043 2.10536 2.73478 2 3 2H8V5C8 5.79565 8.31607 6.55871 8.87868 7.12132C9.44129 7.68393 10.2044 8 11 8H14V9C14 9.26522 14.1054 9.51957 14.2929 9.70711C14.4804 9.89464 14.7348 10 15 10C15.2652 10 15.5196 9.89464 15.7071 9.70711C15.8946 9.51957 16 9.26522 16 9V7C16 7 16 7 16 6.94C15.9896 6.84813 15.9695 6.75763 15.94 6.67C15.9442 6.64015 15.9442 6.60985 15.94 6.58C15.8919 6.47718 15.8278 6.38267 15.75 6.3L9.75 0.3C9.66734 0.222216 9.57282 0.158081 9.47 0.11H9.37C9.27566 0.059431 9.17467 0.0224008 9.07 0H3C2.20435 0 1.44129 0.316071 0.87868 0.87868C0.316071 1.44129 0 2.20435 0 3V17C0 17.7956 0.316071 18.5587 0.87868 19.1213C1.44129 19.6839 2.20435 20 3 20H13C13.7956 20 14.5587 19.6839 15.1213 19.1213C15.6839 18.5587 16 17.7956 16 17C16 16.7348 15.8946 16.4804 15.7071 16.2929C15.5196 16.1054 15.2652 16 15 16ZM10 3.41L12.59 6H11C10.7348 6 10.4804 5.89464 10.2929 5.70711C10.1054 5.51957 10 5.26522 10 5V3.41ZM17 12H14.5C14.3684 11.9992 14.2379 12.0245 14.1161 12.0742C13.9943 12.124 13.8834 12.1973 13.79 12.29L12.55 13.54L9.75 10.34C9.65993 10.2368 9.54962 10.1532 9.42591 10.0944C9.30221 10.0356 9.16774 10.0029 9.03085 9.99818C8.89396 9.99349 8.75757 10.017 8.63013 10.0672C8.50269 10.1174 8.38692 10.1932 8.29 10.29L6.59 12H5C4.73478 12 4.48043 12.1054 4.29289 12.2929C4.10536 12.4804 4 12.7348 4 13C4 13.2652 4.10536 13.5196 4.29289 13.7071C4.48043 13.8946 4.73478 14 5 14H7C7.13161 14.0008 7.26207 13.9755 7.38391 13.9258C7.50574 13.876 7.61656 13.8027 7.71 13.71L9 12.46L11.8 15.66C11.8903 15.763 12.0008 15.8463 12.1247 15.9048C12.2486 15.9632 12.3831 15.9957 12.52 16C12.6516 16.0008 12.7821 15.9755 12.9039 15.9258C13.0257 15.876 13.1366 15.8027 13.23 15.71L14.91 14H17C17.2652 14 17.5196 13.8946 17.7071 13.7071C17.8946 13.5196 18 13.2652 18 13C18 12.7348 17.8946 12.4804 17.7071 12.2929C17.5196 12.1054 17.2652 12 17 12Z" fill="#87121A"/>
</svg>
