<svg width="30" height="30" viewBox="0 0 30 30" fill="none" xmlns="http://www.w3.org/2000/svg">
<path fill-rule="evenodd" clip-rule="evenodd" d="M4.49341 14.0077L15.9905 25.4807L13.1687 28.2916L1.67157 16.8187L4.49341 14.0077Z" fill="white"/>
<path fill-rule="evenodd" clip-rule="evenodd" d="M16.1727 2.23667C15.3987 2.25159 14.6605 2.56509 14.1123 3.11165L2.23144 14.9574C1.05584 16.1295 1.05564 18.0335 2.23101 19.2059L10.8821 27.8349C12.0529 29.0027 13.9479 29.0029 15.1189 27.8353L27.0421 15.9474C27.572 15.4191 27.8853 14.7117 27.9206 13.9642L28.3334 5.20177C28.4151 3.46854 27.0138 2.02767 25.279 2.06112L16.1727 2.23667ZM16.4715 4.36179C15.9593 4.37428 15.4714 4.58287 15.1085 4.94454L4.35096 15.6649C3.5667 16.4465 3.56664 17.7165 4.35084 18.4981L11.5885 25.7121C12.369 26.49 13.6317 26.49 14.4122 25.7122L25.2055 14.9562C25.5527 14.6102 25.7607 14.1487 25.7901 13.6594L26.2326 6.293C26.3028 5.12405 25.3581 4.14514 24.1874 4.17368L16.4715 4.36179Z" fill="#9292A8"/>
<rect x="6.01465" y="13.1543" width="16" height="2" transform="rotate(45 6.01465 13.1543)" fill="#9292A8"/>
<circle cx="22.4941" cy="7.98851" r="1.5" transform="rotate(45 22.4941 7.98851)" fill="#9292A8"/>
</svg>
