<?xml version="1.0" encoding="utf-8"?>
<!-- Svg Vector Icons : http://www.onlinewebfonts.com/icon -->
<!DOCTYPE svg PUBLIC "-//W3C//DTD SVG 1.1//EN" "http://www.w3.org/Graphics/SVG/1.1/DTD/svg11.dtd">
<svg version="1.1" xmlns="http://www.w3.org/2000/svg" xmlns:xlink="http://www.w3.org/1999/xlink" x="0px" y="0px" viewBox="0 0 1000 1000" enable-background="new 0 0 1000 1000" xml:space="preserve">
<metadata> Svg Vector Icons : http://www.onlinewebfonts.com/icon </metadata>
<g><path d="M601.8,423.2c40.8-17.2,83.8-26,128.4-26c4.4,0,8.8,0.2,13.2,0.2c20.9-52.8,26.2-115.2,15.7-175.9C734.9,82.3,603.6-10.7,465.5,13.8C327.7,38.3,211.4,145.5,235.9,284.6c5.2,30,19.7,76.9,36.9,110.8L22.5,756.6c-9.2,13.2-14.5,37.1-11.7,53.4l10.9,61.8c-10.3-59.5,2.9,21.4,10.9,21.2l82.5,1.1c15.9-2.9,35.8-16.3,44.6-29.9l99-154.8l1-1l86.5,6.9l115.6-181.3c0.4,0,0.8,0.2,1.1,0.2c10.3-14.2,21.6-27.6,34.3-40.2C527.2,463.6,562.6,439.8,601.8,423.2L601.8,423.2z M76.6,794.7l-12.2,5.2l1.3-13.4l239.8-348.2l14.4,13.4L76.6,794.7L76.6,794.7z M441.1,154.1c37.9-54.5,112.5-68.1,166.5-29.7c54.2,38.5,67.4,113.9,29.5,168.4c-37.9,54.6-76.6,16.1-130.7-22.2C452.3,232.2,403.2,208.8,441.1,154.1L441.1,154.1z"/><path d="M727,464.2c-145.3,0-263,117.7-263,263c0,145.3,117.7,263,263,263s263-117.7,263-263S872.3,464.2,727,464.2L727,464.2z M879,835.1c0,39.2-75.2,48.2-145.9,48.2c-70.6,0-146.8-9-146.8-48.2v-10.9c0-28.9,52.1-58.2,96.3-74.1c3.3-1.2,18.6-9.6,10-32c-22-22.4-38.5-58.8-38.5-94.6c0-54.7,36.2-83.5,78.7-83.5c42.3,0,78.9,28.7,78.9,83.5c0,35.6-16.7,71.8-38.5,94.4h0.2c-8.4,25.5,5,31.6,7.1,32.2c46.5,15.3,98.8,44.4,98.8,74.1L879,835.1L879,835.1L879,835.1z"/></g>
</svg>