<svg width="20" height="21" viewBox="0 0 20 21" fill="none" xmlns="http://www.w3.org/2000/svg">
<path d="M6.51033 11.4801C6.31255 11.4801 6.11921 11.5387 5.95476 11.6486C5.79031 11.7585 5.66214 11.9147 5.58645 12.0974C5.51077 12.2801 5.49096 12.4812 5.52955 12.6752C5.56813 12.8691 5.66337 13.0473 5.80323 13.1872C5.94308 13.327 6.12126 13.4223 6.31524 13.4609C6.50922 13.4994 6.71029 13.4796 6.89302 13.4039C7.07574 13.3283 7.23192 13.2001 7.3418 13.0356C7.45168 12.8712 7.51033 12.6778 7.51033 12.4801C7.51033 12.2149 7.40498 11.9605 7.21744 11.773C7.0299 11.5854 6.77555 11.4801 6.51033 11.4801ZM6.51033 7.00007C6.31255 7.00007 6.11921 7.05872 5.95476 7.1686C5.79031 7.27848 5.66214 7.43466 5.58645 7.61738C5.51077 7.80011 5.49096 8.00118 5.52955 8.19516C5.56813 8.38914 5.66337 8.56732 5.80323 8.70717C5.94308 8.84703 6.12126 8.94227 6.31524 8.98085C6.50922 9.01944 6.71029 8.99964 6.89302 8.92395C7.07574 8.84826 7.23192 8.72009 7.3418 8.55564C7.45168 8.39119 7.51033 8.19785 7.51033 8.00007C7.51033 7.73485 7.40498 7.4805 7.21744 7.29296C7.0299 7.10543 6.77555 7.00007 6.51033 7.00007ZM10.0003 9.00007C9.73512 9.00007 9.48076 9.10543 9.29323 9.29296C9.10569 9.4805 9.00033 9.73485 9.00033 10.0001V11.0001C9.00033 11.2653 9.10569 11.5196 9.29323 11.7072C9.48076 11.8947 9.73512 12.0001 10.0003 12.0001C10.2655 12.0001 10.5199 11.8947 10.7074 11.7072C10.895 11.5196 11.0003 11.2653 11.0003 11.0001V10.0001C11.0003 9.73485 10.895 9.4805 10.7074 9.29296C10.5199 9.10543 10.2655 9.00007 10.0003 9.00007ZM18.5003 7.57007C18.1554 7.37158 17.7743 7.24372 17.3795 7.19393C16.9846 7.14414 16.5838 7.17342 16.2003 7.28007C15.8013 7.38696 15.4296 7.57789 15.1103 7.84007L3.51033 1.13007C3.35831 1.0423 3.18587 0.996094 3.01033 0.996094C2.8348 0.996094 2.66235 1.0423 2.51033 1.13007C2.35587 1.21689 2.22724 1.34321 2.13763 1.49607C2.04802 1.64894 2.00064 1.82287 2.00033 2.00007V15.1701C1.41019 15.3691 0.898504 15.7505 0.539056 16.2591C0.179607 16.7677 -0.00903294 17.3773 0.000332598 18.0001C5.45126e-05 18.782 0.30512 19.5332 0.850542 20.0936C1.39596 20.654 2.13863 20.9792 2.92033 21.0001H3.50033C6.77707 20.9924 9.99343 20.1178 12.8229 18.4651C15.6523 16.8124 17.994 14.4404 19.6103 11.5901C19.9836 10.9081 20.0776 10.1078 19.8724 9.35787C19.6672 8.60795 19.1789 7.96699 18.5103 7.57007H18.5003ZM4.00033 3.73007L13.8903 9.44007C12.7931 11.0773 11.3263 12.4335 9.60832 13.3994C7.89033 14.3652 5.9693 14.9135 4.00033 15.0001V3.73007ZM17.8703 10.6101C16.3858 13.2257 14.2177 15.3883 11.5983 16.8663C8.9789 18.3442 6.00681 19.0818 3.00033 19.0001C2.73512 19.0001 2.48076 18.8947 2.29323 18.7072C2.10569 18.5196 2.00033 18.2653 2.00033 18.0001C1.99955 17.8661 2.0257 17.7333 2.07724 17.6096C2.12877 17.4859 2.20464 17.3739 2.30033 17.2801C2.4882 17.099 2.7394 16.9985 3.00033 17.0001H3.51033C6.07805 16.999 8.59944 16.3162 10.8167 15.0213C13.034 13.7264 14.8677 11.8659 16.1303 9.63007C16.191 9.52038 16.274 9.42458 16.3739 9.34881C16.4737 9.27304 16.5883 9.21897 16.7103 9.19007C16.9625 9.12086 17.2317 9.15317 17.4603 9.28007C17.6898 9.40339 17.862 9.61137 17.9405 9.85976C18.0189 10.1082 17.9973 10.3773 17.8803 10.6101H17.8703Z" fill="#7A7A7A"/>
</svg>
