<svg width="30" height="30" viewBox="0 0 30 30" fill="none" xmlns="http://www.w3.org/2000/svg">
<path fill-rule="evenodd" clip-rule="evenodd" stroke-width="6" d="M27.0449 11.9894L25.1367 11.6657C24.9379 11.0239 24.6823 10.4049 24.37 9.81426L25.4944 8.24112C25.9715 7.57097 25.8977 6.65662 25.3127 6.07734L23.6203 4.38493C23.3023 4.06689 22.882 3.89084 22.4334 3.89084C22.0812 3.89084 21.7462 3.99874 21.4622 4.20319L19.8834 5.32768C19.2701 5.00396 18.6283 4.73704 17.9638 4.53827L17.6458 2.65277C17.5095 1.84064 16.811 1.25 15.9875 1.25H13.5965C12.7731 1.25 12.0745 1.84064 11.9382 2.65277L11.6088 4.5837C10.9728 4.78247 10.3537 5.04372 9.7631 5.36175L8.20132 4.23727C7.91736 4.03282 7.57661 3.92491 7.2245 3.92491C6.77585 3.92491 6.34991 4.10097 6.03755 4.419L4.33948 6.11141C3.7602 6.69069 3.68069 7.60504 4.15774 8.27519L5.29358 9.87105C4.98122 10.4674 4.73134 11.0864 4.53825 11.7282L2.65276 12.0462C1.84064 12.1825 1.25 12.881 1.25 13.7045V16.0955C1.25 16.919 1.84064 17.6175 2.65276 17.7538L4.58368 18.0832C4.78245 18.7193 5.0437 19.3383 5.36173 19.9289L4.24293 21.4851C3.76588 22.1552 3.83971 23.0696 4.42466 23.6488L6.11706 25.3412C6.4351 25.6593 6.85535 25.8353 7.30401 25.8353C7.65612 25.8353 7.99119 25.7274 8.27515 25.523L9.871 24.3871C10.4446 24.6881 11.0466 24.9323 11.6656 25.1254L11.9837 27.0336C12.12 27.8458 12.8185 28.4364 13.642 28.4364H16.0386C16.8621 28.4364 17.5606 27.8458 17.6969 27.0336L18.0206 25.1254C18.6624 24.9267 19.2814 24.6711 19.872 24.3587L21.4452 25.4832C21.7291 25.6877 22.0699 25.7956 22.422 25.7956C22.8707 25.7956 23.2909 25.6195 23.6089 25.3015L25.3013 23.6091C25.8806 23.0298 25.9601 22.1154 25.4831 21.4453L24.3586 19.8665C24.671 19.2702 24.9322 18.6511 25.1253 18.0151L27.0335 17.697C27.8456 17.5607 28.4363 16.8622 28.4363 16.0387V13.6477C28.4476 12.8242 27.857 12.1257 27.0449 11.9894ZM26.7893 16.1863L24.404 16.5839C24.103 16.635 23.8645 16.8565 23.7907 17.1461C23.5749 17.981 23.2455 18.7817 22.8025 19.5257C22.6492 19.787 22.6605 20.1107 22.8366 20.3606L24.2393 22.3369C24.2791 22.3937 24.2734 22.4789 24.2223 22.53L22.5299 24.2224C22.4902 24.2622 22.4504 24.2679 22.422 24.2679C22.3879 24.2679 22.3595 24.2565 22.3368 24.2395L20.3661 22.8367C20.1219 22.6607 19.7925 22.6493 19.5313 22.8026C18.7873 23.2456 17.9866 23.575 17.1517 23.7908C16.8564 23.8646 16.6349 24.1089 16.5895 24.4042L16.1863 26.7894C16.1749 26.8633 16.1124 26.9144 16.0386 26.9144H13.6477C13.5738 26.9144 13.5114 26.8633 13.5 26.7894L13.1025 24.4042C13.0513 24.1032 12.8299 23.8646 12.5402 23.7908C11.7281 23.5807 10.9444 23.257 10.2118 22.8367C10.0925 22.7686 9.95619 22.7345 9.82557 22.7345C9.67223 22.7345 9.51321 22.7799 9.38259 22.8765L7.39488 24.2906C7.36648 24.3076 7.33809 24.319 7.30969 24.319C7.28697 24.319 7.24154 24.3133 7.20179 24.2736L5.50939 22.5811C5.45828 22.53 5.4526 22.4505 5.49235 22.3881L6.88943 20.4287C7.06549 20.1788 7.07684 19.8494 6.9235 19.5882C6.48053 18.8499 6.13978 18.0491 5.92397 17.2143C5.84446 16.9246 5.60593 16.7032 5.31062 16.652L2.90832 16.2431C2.83449 16.2318 2.78338 16.1693 2.78338 16.0955V13.7045C2.78338 13.6307 2.83449 13.5682 2.90832 13.5569L5.27654 13.1593C5.57754 13.1082 5.82174 12.8867 5.89557 12.5914C6.1057 11.7566 6.42942 10.9501 6.86671 10.2061C7.02005 9.94488 7.00301 9.62117 6.82696 9.37696L5.41284 7.38923C5.37309 7.33244 5.37877 7.24725 5.42988 7.19614L7.12228 5.50373C7.16203 5.46398 7.20179 5.4583 7.23018 5.4583C7.26426 5.4583 7.29265 5.46966 7.31537 5.4867L9.27469 6.88378C9.52457 7.05984 9.85396 7.0712 10.1152 6.91786C10.8535 6.47488 11.6543 6.13413 12.4891 5.91832C12.7787 5.83881 13.0002 5.60028 13.0513 5.30496L13.4602 2.90265C13.4716 2.82882 13.5341 2.77771 13.6079 2.77771H15.9988C16.0727 2.77771 16.1351 2.82882 16.1465 2.90265L16.544 5.27089C16.5952 5.57189 16.8166 5.81609 17.112 5.88992C17.9695 6.10573 18.7873 6.44081 19.5483 6.88946C19.8096 7.0428 20.1333 7.03144 20.3832 6.85539L22.3425 5.44694C22.3709 5.4299 22.3993 5.41855 22.4277 5.41855C22.4504 5.41855 22.4958 5.42423 22.5356 5.46398L24.228 7.15639C24.2791 7.2075 24.2848 7.28701 24.245 7.34948L22.8423 9.32017C22.6662 9.56437 22.6548 9.89377 22.8082 10.155C23.2512 10.899 23.5806 11.6998 23.7964 12.5346C23.8702 12.8299 24.1144 13.0514 24.4097 13.0968L26.795 13.5001C26.8688 13.5114 26.9199 13.5739 26.9199 13.6477V16.0387H26.9142C26.9142 16.1125 26.8631 16.175 26.7893 16.1863Z" fill="#9292A8"/>
<path fill-rule="evenodd" clip-rule="evenodd" stroke-width="6" d="M27.9425 11.7795L25.8939 11.4319C25.6805 10.743 25.4061 10.0784 25.0708 9.4443L26.278 7.75543C26.7902 7.03598 26.7109 6.05436 26.0829 5.43246L24.266 3.61555C23.9246 3.27412 23.4734 3.08511 22.9917 3.08511C22.6137 3.08511 22.254 3.20096 21.9492 3.42045L20.2542 4.62766C19.5957 4.28013 18.9068 3.99357 18.1934 3.78017L17.852 1.75596C17.7057 0.88409 16.9557 0.25 16.0717 0.25H13.5048C12.6208 0.25 11.8708 0.88409 11.7245 1.75596L11.3709 3.82895C10.688 4.04234 10.0235 4.32281 9.38937 4.66424L7.7127 3.45703C7.40785 3.23754 7.04204 3.12169 6.66402 3.12169C6.18236 3.12169 5.72509 3.3107 5.38975 3.65214L3.56676 5.46905C2.94487 6.09094 2.85951 7.07256 3.37165 7.79201L4.59105 9.50527C4.25572 10.1455 3.98745 10.81 3.78015 11.499L1.75595 11.8404C0.884086 11.9868 0.25 12.7367 0.25 13.6208V16.1876C0.25 17.0717 0.884086 17.8216 1.75595 17.9679L3.82893 18.3216C4.04232 19.0044 4.32278 19.669 4.66421 20.3031L3.46311 21.9737C2.95096 22.6931 3.03022 23.6747 3.65821 24.2966L5.47511 26.1135C5.81654 26.455 6.26772 26.644 6.74938 26.644C7.12739 26.644 7.48712 26.5281 7.79196 26.3086L9.50522 25.0892C10.121 25.4124 10.7673 25.6746 11.4319 25.8819L11.7733 27.9305C11.9196 28.8023 12.6695 29.4364 13.5536 29.4364H16.1265C17.0106 29.4364 17.7605 28.8023 17.9069 27.9305L18.2544 25.8819C18.9433 25.6685 19.6079 25.3941 20.242 25.0588L21.9309 26.266C22.2357 26.4855 22.6015 26.6013 22.9795 26.6013C23.4612 26.6013 23.9124 26.4123 24.2538 26.0709L26.0707 24.254C26.6926 23.6321 26.778 22.6504 26.2658 21.931L25.0586 20.236C25.3939 19.5958 25.6744 18.9313 25.8817 18.2484L27.9303 17.907C28.8022 17.7606 29.4362 17.0107 29.4362 16.1266V13.5598C29.4484 12.6757 28.8144 11.9258 27.9425 11.7795ZM27.6681 16.2852L25.1074 16.7119C24.7842 16.7668 24.5282 17.0046 24.4489 17.3155C24.2172 18.2118 23.8636 19.0715 23.388 19.8702C23.2234 20.1507 23.2356 20.4982 23.4246 20.7665L24.9306 22.8882C24.9733 22.9492 24.9672 23.0406 24.9123 23.0955L23.0954 24.9124C23.0527 24.9551 23.01 24.9612 22.9795 24.9612C22.943 24.9612 22.9125 24.949 22.8881 24.9307L20.7724 23.4248C20.5103 23.2358 20.1566 23.2236 19.8762 23.3882C19.0775 23.8637 18.2178 24.2174 17.3215 24.4491C17.0045 24.5283 16.7667 24.7905 16.7179 25.1075L16.2851 27.6683C16.2729 27.7475 16.2058 27.8024 16.1265 27.8024H13.5597C13.4804 27.8024 13.4134 27.7475 13.4012 27.6683L12.9744 25.1075C12.9195 24.7844 12.6817 24.5283 12.3708 24.4491C11.4989 24.2235 10.6575 23.8759 9.87103 23.4248C9.743 23.3516 9.59667 23.315 9.45644 23.315C9.29182 23.315 9.12111 23.3638 8.98088 23.4674L6.84693 24.9856C6.81645 25.0039 6.78596 25.0161 6.75548 25.0161C6.73109 25.0161 6.68231 25.01 6.63964 24.9673L4.82273 23.1504C4.76786 23.0955 4.76177 23.0102 4.80444 22.9431L6.3043 20.8396C6.49331 20.5714 6.5055 20.2177 6.34088 19.9373C5.86532 19.1447 5.4995 18.285 5.26781 17.3887C5.18246 17.0778 4.92638 16.84 4.60934 16.7851L2.03032 16.3461C1.95106 16.3339 1.89618 16.2669 1.89618 16.1876V13.6208C1.89618 13.5415 1.95106 13.4744 2.03032 13.4622L4.57276 13.0354C4.8959 12.9806 5.15807 12.7428 5.23733 12.4257C5.46292 11.5295 5.81045 10.6637 6.27991 9.865C6.44453 9.58453 6.42624 9.237 6.23723 8.97483L4.71909 6.84087C4.67641 6.7799 4.6825 6.68845 4.73738 6.63358L6.55428 4.81667C6.59696 4.77399 6.63964 4.76789 6.67012 4.76789C6.7067 4.76789 6.73719 4.78008 6.76157 4.79837L8.86503 6.29824C9.1333 6.48725 9.48693 6.49944 9.76739 6.33482C10.56 5.85926 11.4197 5.49343 12.3159 5.26175C12.6269 5.17639 12.8647 4.92031 12.9195 4.60327L13.3585 2.02423C13.3707 1.94497 13.4378 1.8901 13.517 1.8901H16.0839C16.1631 1.8901 16.2302 1.94497 16.2424 2.02423L16.6692 4.56669C16.724 4.88983 16.9618 5.152 17.2789 5.23126C18.1995 5.46295 19.0775 5.82267 19.8945 6.30434C20.1749 6.46896 20.5225 6.45676 20.7907 6.26776L22.8942 4.7557C22.9247 4.7374 22.9552 4.72521 22.9856 4.72521C23.01 4.72521 23.0588 4.73131 23.1015 4.77399L24.9184 6.5909C24.9733 6.64577 24.9794 6.73113 24.9367 6.7982L23.4307 8.91386C23.2417 9.17603 23.2295 9.52966 23.3941 9.81012C23.8697 10.6088 24.2233 11.4685 24.455 12.3648C24.5343 12.6818 24.7964 12.9196 25.1135 12.9684L27.6742 13.4013C27.7535 13.4135 27.8084 13.4805 27.8084 13.5598V16.1266H27.8023C27.8023 16.2059 27.7474 16.273 27.6681 16.2852Z" fill="#9292A8"/>
<path fill-rule="evenodd" clip-rule="evenodd" stroke-width="6" d="M14.8434 9.35742C11.8168 9.35742 9.3584 11.8158 9.3584 14.8424C9.3584 17.869 11.8168 20.3274 14.8434 20.3274C17.8699 20.3274 20.3284 17.869 20.3284 14.8424C20.3284 11.8158 17.8699 9.35742 14.8434 9.35742ZM14.8434 18.8965C12.6064 18.8965 10.7893 17.0793 10.7893 14.8424C10.7893 12.6055 12.6064 10.7883 14.8434 10.7883C17.0803 10.7883 18.8975 12.6055 18.8975 14.8424C18.8975 17.0793 17.0803 18.8965 14.8434 18.8965Z" fill="#9292A8"/>
<path fill-rule="evenodd" clip-rule="evenodd" stroke-width="6" d="M14.8434 8.35742C11.265 8.35742 8.3584 11.264 8.3584 14.8424C8.3584 18.4208 11.265 21.3274 14.8434 21.3274C18.4217 21.3274 21.3284 18.4208 21.3284 14.8424C21.3284 11.264 18.4217 8.35742 14.8434 8.35742ZM14.8434 19.6356C12.1986 19.6356 10.0501 17.4872 10.0501 14.8424C10.0501 12.1976 12.1986 10.0492 14.8434 10.0492C17.4881 10.0492 19.6366 12.1976 19.6366 14.8424C19.6366 17.4872 17.4881 19.6356 14.8434 19.6356Z" fill="#9292A8"/>
</svg>
