<?xml version="1.0" encoding="utf-8"?>
<!-- Svg Vector Icons : http://www.onlinewebfonts.com/icon -->
<!DOCTYPE svg PUBLIC "-//W3C//DTD SVG 1.1//EN" "http://www.w3.org/Graphics/SVG/1.1/DTD/svg11.dtd">
<svg version="1.1" xmlns="http://www.w3.org/2000/svg" xmlns:xlink="http://www.w3.org/1999/xlink" x="0px" y="0px" viewBox="0 0 1000 1000" enable-background="new 0 0 1000 1000" xml:space="preserve">
<metadata> Svg Vector Icons : http://www.onlinewebfonts.com/icon </metadata>
<g><g transform="translate(0.000000,511.000000) scale(0.100000,-0.100000)"><path d="M4637.7,5003.3c-1044.8-165-1933.5-972.2-2204.1-2001.7c-74.8-292.6-94.6-763.3-39.6-1051.4c99-530.1,336.5-1000.8,703.9-1392.4c169.4-180.4,184.8-202.4,138.6-202.4c-13.2,0-154-63.8-312.3-140.8C1747.4-359.4,823.5-1413.1,416.6-2636.1c-195.8-587.3-189.2-888.7,24.2-1341.8c162.8-338.8,461.9-602.7,846.9-743.5l160.6-59.4l3486.4-6.6c3154.3-6.6,3499.7-2.2,3636.1,28.6C9213-4604.8,9653-4090,9719-3410.4c22,204.6-15.4,422.3-134.2,774.3C9175.7-1410.9,8254-359.4,7077.2,214.7c-158.4,77-299.2,140.8-312.4,140.8c-46.2,0-30.8,22,138.6,202.4c767.7,816.1,954.7,1959.9,479.5,2936.5c-292.5,602.7-827.1,1102-1440.8,1348.4c-321.1,127.6-479.5,156.2-875.5,165C4866.5,5012.1,4675.1,5009.9,4637.7,5003.3z M5396.6,4372c422.3-77,730.3-237.6,1044.8-552.1c318.9-318.9,492.7-664.3,563.1-1110.8c35.2-228.8,13.2-648.9-44-868.9c-140.8-534.5-492.7-970-1003-1245c-195.8-105.6-253-180.4-253-327.7c0-103.4,46.2-198,125.4-253c24.2-15.4,123.2-50.6,222.2-74.8c1418.8-362.9,2507.6-1401.2,2967.3-2831c70.4-217.8,83.6-292.6,83.6-448.7c0-167.2-8.8-204.6-70.4-332.1c-92.4-187-257.4-358.6-417.9-433.3l-127.6-59.4H5000.7H1514.2l-127.6,59.4c-160.6,74.8-325.6,246.4-417.9,433.3c-63.8,132-70.4,162.8-68.2,343.1c2.2,167.2,15.4,237.6,85.8,450.9c107.8,332.1,237.6,622.5,389.3,879.9C1945.4-1030.3,2864.8-337.4,3949.3-60.3c99,24.2,198,59.4,222.2,74.8c79.2,55,125.4,149.6,125.4,253c0,147.4-57.2,222.2-253,327.7c-510.3,275-855.7,703.9-1005.2,1245c-66,244.2-70.4,798.5-8.8,1044.8c101.2,398.1,281.6,710.5,569.7,983.3c281.6,264,615.9,433.3,994.2,501.5C4798.3,4407.2,5192.1,4409.4,5396.6,4372z"/></g></g>
</svg>